<?xml version="1.0" encoding="UTF-8" standalone="no"?>
<svg
   xmlns:dc="http://purl.org/dc/elements/1.1/"
   xmlns:cc="http://creativecommons.org/ns#"
   xmlns:rdf="http://www.w3.org/1999/02/22-rdf-syntax-ns#"
   xmlns:svg="http://www.w3.org/2000/svg"
   xmlns="http://www.w3.org/2000/svg"
   xmlns:sodipodi="http://sodipodi.sourceforge.net/DTD/sodipodi-0.dtd"
   xmlns:inkscape="http://www.inkscape.org/namespaces/inkscape"
   version="1.1"
   id="svg2"
   xml:space="preserve"
   width="200"
   height="200"
   viewBox="0 0 200 200"
   sodipodi:docname="contact.svg"
   inkscape:version="1.0.1 (3bc2e813f5, 2020-09-07)"><metadata
     id="metadata8"><rdf:RDF><cc:Work
         rdf:about=""><dc:format>image/svg+xml</dc:format><dc:type
           rdf:resource="http://purl.org/dc/dcmitype/StillImage" /><dc:title /></cc:Work></rdf:RDF></metadata><defs
     id="defs6"><clipPath
       clipPathUnits="userSpaceOnUse"
       id="clipPath30"><path
         d="M 0,500 H 500 V 0 H 0 Z"
         id="path28" /></clipPath><clipPath
       clipPathUnits="userSpaceOnUse"
       id="clipPath210"><path
         d="M 0,500 H 500 V 0 H 0 Z"
         id="path208" /></clipPath><clipPath
       clipPathUnits="userSpaceOnUse"
       id="clipPath222"><path
         d="M 48.7646,384.5 H 449.256 V 136.272 H 48.7646 Z"
         id="path220" /></clipPath><clipPath
       clipPathUnits="userSpaceOnUse"
       id="clipPath238"><path
         d="M 0,500 H 500 V 0 H 0 Z"
         id="path236" /></clipPath><clipPath
       clipPathUnits="userSpaceOnUse"
       id="clipPath250"><path
         d="M 0,500 H 500 V 0 H 0 Z"
         id="path248" /></clipPath><clipPath
       clipPathUnits="userSpaceOnUse"
       id="clipPath262"><path
         d="m 312.041,310.907 h 4.694 v -8.641 h -4.694 z"
         id="path260" /></clipPath><clipPath
       clipPathUnits="userSpaceOnUse"
       id="clipPath286"><path
         d="m 301.828,283.427 h 7.218 v -12.276 h -7.218 z"
         id="path284" /></clipPath><clipPath
       clipPathUnits="userSpaceOnUse"
       id="clipPath306"><path
         d="m 291.893,330.586 h 14.612 v -19.679 h -14.612 z"
         id="path304" /></clipPath><clipPath
       clipPathUnits="userSpaceOnUse"
       id="clipPath326"><path
         d="m 331.718,300.302 h 11.528 V 282.35 h -11.528 z"
         id="path324" /></clipPath><clipPath
       clipPathUnits="userSpaceOnUse"
       id="clipPath414"><path
         d="m 338.509,238.387 h 16.39 v -49.828 h -16.39 z"
         id="path412" /></clipPath><clipPath
       clipPathUnits="userSpaceOnUse"
       id="clipPath450"><path
         d="M 0,500 H 500 V 0 H 0 Z"
         id="path448" /></clipPath><clipPath
       clipPathUnits="userSpaceOnUse"
       id="clipPath458"><path
         d="M 182.583,355.261 H 321.458 V 94.5668 H 182.583 Z"
         id="path456" /></clipPath><clipPath
       clipPathUnits="userSpaceOnUse"
       id="clipPath478"><path
         d="M 182.583,355.261 H 321.458 V 94.5668 H 182.583 Z"
         id="path476" /></clipPath><clipPath
       clipPathUnits="userSpaceOnUse"
       id="clipPath498"><path
         d="m 220.3,286.351 h 43.795 V 245.018 H 220.3 Z"
         id="path496" /></clipPath><clipPath
       clipPathUnits="userSpaceOnUse"
       id="clipPath526"><path
         d="m 216.354,190.539 h 32.574 v -30.743 h -32.574 z"
         id="path524" /></clipPath><clipPath
       clipPathUnits="userSpaceOnUse"
       id="clipPath542"><path
         d="m 240.091,238.068 h 40.718 v -38.429 h -40.718 z"
         id="path540" /></clipPath><clipPath
       clipPathUnits="userSpaceOnUse"
       id="clipPath594"><path
         d="M 237.073,326.518 H 273.72 V 291.932 H 237.073 Z"
         id="path592" /></clipPath><clipPath
       clipPathUnits="userSpaceOnUse"
       id="clipPath626"><path
         d="m 253.493,360.441 h 16.846 v -1.2 h -16.846 z"
         id="path624" /></clipPath><clipPath
       clipPathUnits="userSpaceOnUse"
       id="clipPath642"><path
         d="m 274.918,360.441 h 5.671 v -1.2 h -5.671 z"
         id="path640" /></clipPath><clipPath
       clipPathUnits="userSpaceOnUse"
       id="clipPath666"><path
         d="m 304.322,238.462 h 2.568 v -16.846 h -2.568 z"
         id="path664" /></clipPath><clipPath
       clipPathUnits="userSpaceOnUse"
       id="clipPath682"><path
         d="m 303.425,217.036 h 1.59 v -5.67 h -1.59 z"
         id="path680" /></clipPath><clipPath
       clipPathUnits="userSpaceOnUse"
       id="clipPath698"><path
         d="M 0,500 H 500 V 0 H 0 Z"
         id="path696" /></clipPath><clipPath
       clipPathUnits="userSpaceOnUse"
       id="clipPath718"><path
         d="m 178.139,331.799 h 9.282 v -6.364 h -9.282 z"
         id="path716" /></clipPath><clipPath
       clipPathUnits="userSpaceOnUse"
       id="clipPath754"><path
         d="m 158.445,302.619 h 19.926 v -9.835 h -19.926 z"
         id="path752" /></clipPath><clipPath
       clipPathUnits="userSpaceOnUse"
       id="clipPath786"><path
         d="m 142.881,298.763 h 10.492 V 281.97 h -10.492 z"
         id="path784" /></clipPath><clipPath
       clipPathUnits="userSpaceOnUse"
       id="clipPath810"><path
         d="m 129.291,221.158 h 16.07 v -36.859 h -16.07 z"
         id="path808" /></clipPath><clipPath
       clipPathUnits="userSpaceOnUse"
       id="clipPath826"><path
         d="m 172.147,286.374 h 10.474 v -20.135 h -10.474 z"
         id="path824" /></clipPath><clipPath
       clipPathUnits="userSpaceOnUse"
       id="clipPath894"><path
         d="m 170.434,306.329 h 4.518 v -3.967 h -4.518 z"
         id="path892" /></clipPath><clipPath
       clipPathUnits="userSpaceOnUse"
       id="clipPath526-3"><path
         d="m 216.354,190.539 h 32.574 v -30.743 h -32.574 z"
         id="path524-6" /></clipPath></defs><sodipodi:namedview
     pagecolor="#ffffff"
     bordercolor="#666666"
     borderopacity="1"
     objecttolerance="10"
     gridtolerance="10"
     guidetolerance="10"
     inkscape:pageopacity="0"
     inkscape:pageshadow="2"
     inkscape:window-width="1366"
     inkscape:window-height="719"
     id="namedview4"
     showgrid="false"
     inkscape:zoom="1.1582409"
     inkscape:cx="264.1954"
     inkscape:cy="76.320004"
     inkscape:window-x="1280"
     inkscape:window-y="152"
     inkscape:window-maximized="1"
     inkscape:current-layer="g10"
     inkscape:document-rotation="0" /><g
     id="g10"
     inkscape:groupmode="layer"
     inkscape:label="4022194"
     transform="matrix(1.3333333,0,0,-1.3333333,0,666.66667)"><g
       id="g520"
       transform="matrix(3.6532182,0,0,3.6532177,-765.37088,-225.24365)"><g
         id="g522" /><g
         id="g534"><g
           clip-path="url(#clipPath526-3)"
           opacity="0.100006"
           id="g532"><g
             transform="translate(241.5329,159.7959)"
             id="g530"><path
               d="m 0,0 h -20.474 c -2.836,0 -4.934,2.299 -4.685,5.135 l 1.791,20.473 c 0.248,2.836 2.748,5.135 5.584,5.135 H 2.689 c 2.836,0 4.935,-2.299 4.686,-5.135 L 5.584,5.135 C 5.336,2.299 2.836,0 0,0"
               style="fill:#000000;fill-opacity:1;fill-rule:nonzero;stroke:none"
               id="path528" /></g></g></g></g><g
       id="g556"
       transform="matrix(3.6532182,0,0,3.6532177,106.04183,369.48514)"><path
         d="m 0,0 h -20.474 c -2.836,0 -4.934,2.299 -4.685,5.135 l 1.791,20.473 c 0.248,2.836 2.748,5.135 5.584,5.135 H 2.689 c 2.836,0 4.935,-2.299 4.686,-5.135 L 5.584,5.135 C 5.336,2.299 2.836,0 0,0"
         style="fill:#5e7a91;fill-opacity:1;fill-rule:nonzero;stroke:none"
         id="path558" /></g><g
       id="g564"
       transform="matrix(3.6532182,0,0,3.6532177,39.267211,445.79249)"><path
         d="M 0,0 5.99,-2.447 12.591,2.08 7.633,-3.794 11.28,-8.934 17.047,5.385 Z"
         style="fill:#ffffff;fill-opacity:1;fill-rule:nonzero;stroke:none"
         id="path566" /></g><g
       id="g568"
       transform="matrix(3.6532182,0,0,3.6532177,59.6558,431.90037)"><path
         d="M 0,0 2.703,-3.304 H -0.173 Z"
         style="fill:#ffffff;fill-opacity:1;fill-rule:nonzero;stroke:none"
         id="path570" /></g><g
       id="g572"
       transform="matrix(3.6532182,0,0,3.6532177,50.929687,416.13858)"><path
         d="m 0,0 -0.631,0.406 c 0.326,0.508 0.604,0.833 0.615,0.847 L 0.555,0.767 C 0.552,0.764 0.297,0.462 0,0"
         style="fill:#ffffff;fill-opacity:1;fill-rule:nonzero;stroke:none"
         id="path574" /></g><g
       id="g576"
       transform="matrix(3.6532182,0,0,3.6532177,47.542108,407.55131)"><path
         d="m 0,0 -0.747,0.061 c 0.047,0.572 0.239,1.201 0.572,1.87 L 0.497,1.597 C 0.206,1.013 0.04,0.476 0,0 m 0.634,-2.575 c -0.672,0.402 -1.107,0.94 -1.292,1.599 l 0.722,0.204 C 0.198,-1.248 0.51,-1.627 1.019,-1.931 Z"
         style="fill:#ffffff;fill-opacity:1;fill-rule:nonzero;stroke:none"
         id="path578" /></g><g
       id="g580"
       transform="matrix(3.6532182,0,0,3.6532177,83.52151,396.09228)"><path
         d="M 0,0 -0.071,0.746 C 0.572,0.808 1.19,0.859 1.766,0.888 L 1.802,0.138 C 1.237,0.111 0.631,0.06 0,0 M 4.354,-0.092 C 3.955,0.064 3.411,0.146 2.69,0.155 l 0.011,0.75 C 3.512,0.894 4.143,0.797 4.627,0.607 Z m -10.8,-0.147 c -0.104,0.011 -0.208,0.024 -0.311,0.039 -0.578,0.079 -1.101,0.197 -1.552,0.351 l 0.242,0.709 c 0.406,-0.137 0.881,-0.245 1.412,-0.318 l 0.289,-0.035 z m 3.711,-0.008 -0.054,0.748 c 0.61,0.044 1.217,0.102 1.809,0.158 l 0.072,-0.746 c -0.598,-0.059 -1.211,-0.116 -1.827,-0.16 m -1.994,-0.079 c -0.264,0.001 -0.525,0.006 -0.783,0.016 l 0.032,0.75 c 0.586,-0.025 1.185,-0.019 1.791,0.008 l 0.033,-0.75 C -4.015,-0.317 -4.374,-0.326 -4.729,-0.326 M 5.903,-2.055 5.164,-1.926 c 0.034,0.197 0.051,0.377 0.051,0.543 0,0.38 -0.088,0.673 -0.27,0.894 l 0.578,0.476 c 0.293,-0.355 0.442,-0.816 0.442,-1.37 0,-0.205 -0.02,-0.429 -0.062,-0.672"
         style="fill:#ffffff;fill-opacity:1;fill-rule:nonzero;stroke:none"
         id="path582" /></g><g
       id="g584"
       transform="matrix(3.6532182,0,0,3.6532177,102.80247,381.5543)"><path
         d="m 0,0 -0.687,0.301 c 0.141,0.323 0.258,0.625 0.352,0.903 L 0.375,0.966 C 0.276,0.668 0.151,0.347 0,0"
         style="fill:#ffffff;fill-opacity:1;fill-rule:nonzero;stroke:none"
         id="path586" /></g></g></svg>
