<?xml version="1.0" encoding="UTF-8" standalone="no"?>
<svg
   xmlns:dc="http://purl.org/dc/elements/1.1/"
   xmlns:cc="http://creativecommons.org/ns#"
   xmlns:rdf="http://www.w3.org/1999/02/22-rdf-syntax-ns#"
   xmlns:svg="http://www.w3.org/2000/svg"
   xmlns="http://www.w3.org/2000/svg"
   xmlns:sodipodi="http://sodipodi.sourceforge.net/DTD/sodipodi-0.dtd"
   xmlns:inkscape="http://www.inkscape.org/namespaces/inkscape"
   width="300mm"
   height="300mm"
   viewBox="0 0 300 300"
   version="1.1"
   id="svg683"
   inkscape:version="1.0.1 (3bc2e813f5, 2020-09-07)"
   sodipodi:docname="contact.svg">
  <defs
     id="defs677">
    <rect
       x="-100.51943"
       y="181.72197"
       width="21.958516"
       height="26.018945"
       id="rect957" />
    <clipPath
       clipPathUnits="userSpaceOnUse"
       id="clipPath526-3">
      <path
         d="m 216.354,190.539 h 32.574 v -30.743 h -32.574 z"
         id="path524-6" />
    </clipPath>
    <clipPath
       clipPathUnits="userSpaceOnUse"
       id="clipPath526-3-3">
      <path
         d="m 216.354,190.539 h 32.574 v -30.743 h -32.574 z"
         id="path524-6-6" />
    </clipPath>
  </defs>
  <sodipodi:namedview
     id="base"
     pagecolor="#ffffff"
     bordercolor="#666666"
     borderopacity="1.0"
     inkscape:pageopacity="0.0"
     inkscape:pageshadow="2"
     inkscape:zoom="0.24748737"
     inkscape:cx="980.0896"
     inkscape:cy="375.80157"
     inkscape:document-units="mm"
     inkscape:current-layer="layer1"
     inkscape:document-rotation="0"
     showgrid="false"
     inkscape:window-width="1274"
     inkscape:window-height="715"
     inkscape:window-x="1316"
     inkscape:window-y="152"
     inkscape:window-maximized="0" />
  <metadata
     id="metadata680">
    <rdf:RDF>
      <cc:Work
         rdf:about="">
        <dc:format>image/svg+xml</dc:format>
        <dc:type
           rdf:resource="http://purl.org/dc/dcmitype/StillImage" />
        <dc:title />
      </cc:Work>
    </rdf:RDF>
  </metadata>
  <g
     inkscape:label="Layer 1"
     inkscape:groupmode="layer"
     id="layer1">
    <g
       id="g520"
       transform="matrix(6.9697043,0,0,-6.9697031,-1452.7357,1387.3142)">
      <g
         id="g522" />
      <g
         id="g534">
        <g
           clip-path="url(#clipPath526-3)"
           opacity="0.100006"
           id="g532">
          <g
             transform="translate(241.5329,159.7959)"
             id="g530">
            <path
               d="m 0,0 h -20.474 c -2.836,0 -4.934,2.299 -4.685,5.135 l 1.791,20.473 c 0.248,2.836 2.748,5.135 5.584,5.135 H 2.689 c 2.836,0 4.935,-2.299 4.686,-5.135 L 5.584,5.135 C 5.336,2.299 2.836,0 0,0"
               style="fill:#000000;fill-opacity:1;fill-rule:nonzero;stroke:none"
               id="path528" />
          </g>
        </g>
      </g>
    </g>
    <g
       id="g556"
       transform="matrix(6.9697043,0,0,-6.9697031,209.76804,252.67542)">
      <path
         d="m 0,0 h -20.474 c -2.836,0 -4.934,2.299 -4.685,5.135 l 1.791,20.473 c 0.248,2.836 2.748,5.135 5.584,5.135 H 2.689 c 2.836,0 4.935,-2.299 4.686,-5.135 L 5.584,5.135 C 5.336,2.299 2.836,0 0,0"
         style="fill:#5e7a91;fill-opacity:1;fill-rule:nonzero;stroke:none"
         id="path558" />
    </g>
    <text
       xml:space="preserve"
       id="text955"
       style="font-size:10.5833px;line-height:1.25;font-family:sans-serif;word-spacing:0px;white-space:pre;shape-inside:url(#rect957);fill:#f9f9f9;"
       transform="matrix(21.575713,0,0,21.575713,2236.9449,-3907.6704)"><tspan
         x="-100.51953"
         y="191.0864"><tspan
           style="font-style:normal;font-variant:normal;font-weight:normal;font-stretch:normal;font-family:Viafont;-inkscape-font-specification:Viafont;fill:#f9f9f9">+</tspan></tspan></text>
  </g>
</svg>
