<?xml version="1.0" encoding="UTF-8" standalone="no"?>
<svg
   xmlns:dc="http://purl.org/dc/elements/1.1/"
   xmlns:cc="http://creativecommons.org/ns#"
   xmlns:rdf="http://www.w3.org/1999/02/22-rdf-syntax-ns#"
   xmlns:svg="http://www.w3.org/2000/svg"
   xmlns="http://www.w3.org/2000/svg"
   xmlns:sodipodi="http://sodipodi.sourceforge.net/DTD/sodipodi-0.dtd"
   xmlns:inkscape="http://www.inkscape.org/namespaces/inkscape"
   version="1.1"
   id="svg2"
   xml:space="preserve"
   width="180"
   height="70"
   viewBox="0 0 180 70"
   sodipodi:docname="couchFurnitureDesign.logo.svg"
   inkscape:version="1.0.1 (3bc2e813f5, 2020-09-07)"><metadata
     id="metadata8"><rdf:RDF><cc:Work
         rdf:about=""><dc:format>image/svg+xml</dc:format><dc:type
           rdf:resource="http://purl.org/dc/dcmitype/StillImage" /><dc:title></dc:title></cc:Work></rdf:RDF></metadata><defs
     id="defs6"><clipPath
       clipPathUnits="userSpaceOnUse"
       id="clipPath28"><path
         d="M 0,500 H 500 V 0 H 0 Z"
         id="path26" /></clipPath></defs><sodipodi:namedview
     pagecolor="#ffffff"
     bordercolor="#666666"
     borderopacity="1"
     objecttolerance="10"
     gridtolerance="10"
     guidetolerance="10"
     inkscape:pageopacity="0"
     inkscape:pageshadow="2"
     inkscape:window-width="1366"
     inkscape:window-height="719"
     id="namedview4"
     showgrid="false"
     inkscape:zoom="1.1582409"
     inkscape:cx="143.3558"
     inkscape:cy="-44.204734"
     inkscape:window-x="1280"
     inkscape:window-y="152"
     inkscape:window-maximized="1"
     inkscape:current-layer="g10"
     inkscape:document-rotation="0"
     showguides="true"
     inkscape:guide-bbox="true" /><g
     id="g10"
     inkscape:groupmode="layer"
     inkscape:label="3540721"
     transform="matrix(1.3333333,0,0,-1.3333333,0,666.66667)"><g
       aria-label="C"
       transform="matrix(1.0490445,0,0,-1.0490445,-0.6582412,-24.293301)"
       id="text868"
       style="font-variant:normal;font-weight:900;font-stretch:normal;font-size:26.7959px;font-family:'Mont Heavy DEMO';-inkscape-font-specification:Mont-HeavyDEMO;word-spacing:0px;writing-mode:lr-tb;fill:#111416;fill-opacity:1;fill-rule:nonzero;stroke:none;stroke-width:0.330929"><path
         d="m 19.643495,-475.17956 c -1.50057,-1.07184 -1.875713,3.18871 -6.564995,2.94755 -3.831814,-0.18757 -5.4931598,-3.08153 -5.8147107,-6.67218 -0.3215508,-3.939 1.7685295,-7.15451 5.5467517,-6.77936 3.831813,0.37514 4.206956,4.34093 5.573547,4.39452 0.696693,0.0268 0.991448,-0.45553 0.857469,-1.2862 -0.214367,-1.15222 -0.750285,-4.01938 -0.964653,-5.1984 -0.187571,-1.12543 -0.45553,-1.71494 -1.366591,-1.55417 -1.179019,0.24117 -0.267959,1.9829 -3.938997,1.3666 -6.8329545,-1.12543 -12.56727714,3.69783 -11.2810739,10.98631 0.7502852,4.20696 4.3945276,8.06557 10.5039929,8.06557 4.984037,0 6.832955,-3.34949 7.368873,-4.76967 0.267959,-0.69669 0.45553,-1.23261 0.08039,-1.50057 z"
         style="font-style:normal;font-variant:normal;font-weight:normal;font-stretch:normal;font-family:'MADE Dillan';-inkscape-font-specification:'MADE Dillan';fill:#111416;fill-opacity:1;stroke-width:0.330929"
         id="path870" /></g><g
       aria-label="FURNITURE DESIGN"
       transform="matrix(0.75212223,0,0,-0.75212223,22.890131,114.22772)"
       id="text20"
       style="font-variant:normal;font-weight:300;font-stretch:normal;font-size:8.51442px;font-family:'Mont ExtraLight DEMO';-inkscape-font-specification:Mont-ExtraLightDEMO;writing-mode:lr-tb;fill:#111416;fill-opacity:1;fill-rule:nonzero;stroke:none;stroke-width:0.34543"><path
         d="m 70.80055,-466.41063 h 3.147176 v 0.34507 h -2.727275 v 2.38221 h 2.461199 v 0.33675 h -2.461199 v 3.14302 H 70.80055 Z"
         style="fill:#111416;fill-opacity:1;stroke-width:0.34543"
         id="path882" /><path
         d="m 75.064128,-466.41063 h 0.415743 v 3.77079 q 0,1.18071 0.415743,1.70039 0.411586,0.51552 1.334535,0.51552 0.918793,0 1.330378,-0.51552 0.415744,-0.51968 0.415744,-1.70039 v -3.77079 h 0.415743 v 3.87473 q 0,1.21397 -0.548781,1.83343 -0.544624,0.61945 -1.613084,0.61945 -1.072617,0 -1.61724,-0.61945 -0.548781,-0.61946 -0.548781,-1.83343 z"
         style="fill:#111416;fill-opacity:1;stroke-width:0.34543"
         id="path884" /><path
         d="m 83.846955,-463.11378 q 0.257761,0.0915 0.498892,0.39079 0.170455,0.21619 0.486419,0.82318 l 0.868904,1.69623 h -0.444846 l -0.885532,-1.70455 q -0.345067,-0.66935 -0.661032,-0.88553 -0.32428,-0.21619 -0.877218,-0.21619 h -1.126664 v 2.80627 h -0.415743 v -6.20705 h 1.68376 q 0.952051,0 1.421841,0.44485 0.46979,0.44484 0.46979,1.34285 0,0.57788 -0.245289,0.97284 -0.232816,0.38664 -0.773282,0.53631 z m -2.141077,-2.95594 v 2.7148 h 1.371952 q 0.665189,0 1.006099,-0.34506 0.340909,-0.34507 0.340909,-1.01857 0,-0.66935 -0.340909,-1.01026 -0.34091,-0.34091 -1.006099,-0.34091 z"
         style="fill:#111416;fill-opacity:1;stroke-width:0.34543"
         id="path886" /><path
         d="m 86.663138,-466.41063 h 0.6153 l 3.009981,5.6749 v -5.6749 h 0.415743 v 6.20705 h -0.590356 l -3.02661,-5.71231 v 5.71231 h -0.424058 z"
         style="fill:#111416;fill-opacity:1;stroke-width:0.34543"
         id="path888" /><path
         d="m 93.006438,-466.41063 h 0.432373 v 6.20705 h -0.432373 z"
         style="fill:#111416;fill-opacity:1;stroke-width:0.34543"
         id="path890" /><path
         d="m 94.274029,-466.41063 h 4.826778 v 0.34091 h -2.203439 v 5.86614 h -0.4199 v -5.86614 h -2.203439 z"
         style="fill:#111416;fill-opacity:1;stroke-width:0.34543"
         id="path892" /><path
         d="m 99.577204,-466.41063 h 0.415744 v 3.77079 q 0,1.18071 0.415742,1.70039 0.41159,0.51552 1.33454,0.51552 0.91879,0 1.33037,-0.51552 0.41575,-0.51968 0.41575,-1.70039 v -3.77079 h 0.41574 v 3.87473 q 0,1.21397 -0.54878,1.83343 -0.54462,0.61945 -1.61308,0.61945 -1.07262,0 -1.61724,-0.61945 -0.548786,-0.61946 -0.548786,-1.83343 z"
         style="fill:#111416;fill-opacity:1;stroke-width:0.34543"
         id="path894" /><path
         d="m 108.36002,-463.11378 q 0.25777,0.0915 0.4989,0.39079 0.17045,0.21619 0.48642,0.82318 l 0.8689,1.69623 h -0.44485 l -0.88553,-1.70455 q -0.34507,-0.66935 -0.66103,-0.88553 -0.32428,-0.21619 -0.87722,-0.21619 h -1.12666 v 2.80627 h -0.41575 v -6.20705 h 1.68376 q 0.95206,0 1.42185,0.44485 0.46979,0.44484 0.46979,1.34285 0,0.57788 -0.24529,0.97284 -0.23282,0.38664 -0.77329,0.53631 z m -2.14107,-2.95594 v 2.7148 h 1.37195 q 0.66519,0 1.0061,-0.34506 0.34091,-0.34507 0.34091,-1.01857 0,-0.66935 -0.34091,-1.01026 -0.34091,-0.34091 -1.0061,-0.34091 z"
         style="fill:#111416;fill-opacity:1;stroke-width:0.34543"
         id="path896" /><path
         d="m 111.18036,-466.41063 h 3.50887 v 0.34507 h -3.08481 v 2.38221 h 2.95593 v 0.33675 h -2.95593 v 2.80627 h 3.15964 v 0.33675 h -3.5837 z"
         style="fill:#111416;fill-opacity:1;stroke-width:0.34543"
         id="path898" /><path
         d="m 118.6118,-466.05725 v 5.51692 h 1.2306 q 1.40521,0 2.05793,-0.66519 0.65687,-0.66519 0.65687,-2.09951 0,-1.426 -0.65687,-2.09118 -0.65272,-0.66104 -2.05793,-0.66104 z m -0.42406,-0.35338 h 1.52578 q 1.69623,0 2.4903,0.7525 0.79407,0.74833 0.79407,2.34479 0,1.60477 -0.79823,2.35726 -0.79822,0.7525 -2.48614,0.7525 h -1.52578 z"
         style="fill:#111416;fill-opacity:1;stroke-width:0.34543"
         id="path900" /><path
         d="m 124.35217,-466.41063 h 3.50887 v 0.34507 h -3.08481 v 2.38221 h 2.95593 v 0.33675 h -2.95593 v 2.80627 h 3.15965 v 0.33675 h -3.58371 z"
         style="fill:#111416;fill-opacity:1;stroke-width:0.34543"
         id="path902" /><path
         d="m 132.43846,-466.09882 v 0.3908 q -0.40742,-0.20372 -0.90216,-0.3617 -0.32428,-0.10393 -0.81901,-0.11225 -0.73171,-0.0125 -1.18903,0.32428 -0.41574,0.30765 -0.41574,1.05599 0,0.46147 0.31596,0.73171 0.33676,0.28686 1.01442,0.46147 l 0.49473,0.12888 q 0.66519,0.17461 1.02689,0.41574 0.67766,0.46148 0.67766,1.15993 0,1.01025 -0.59451,1.40105 -0.64856,0.4199 -1.33038,0.4199 -0.71092,0 -1.27218,-0.1954 -0.35338,-0.14135 -0.74002,-0.3908 v -0.40742 q 0.58204,0.34506 0.81486,0.44068 0.51968,0.21203 0.96452,0.21203 0.76081,0 1.26386,-0.33675 0.47395,-0.31596 0.47395,-1.11003 0,-0.46564 -0.29102,-0.73171 -0.4199,-0.38664 -1.08925,-0.54878 l -0.49889,-0.12057 q -0.59867,-0.14551 -1.01857,-0.40743 -0.63609,-0.39911 -0.63609,-1.08924 0,-0.86059 0.51968,-1.32207 0.48226,-0.42821 1.46342,-0.43237 0.57788,0 0.88553,0.0998 0.78991,0.25776 0.88137,0.32428 z"
         style="fill:#111416;fill-opacity:1;stroke-width:0.34543"
         id="path904" /><path
         d="m 133.92678,-466.41063 h 0.43237 v 6.20705 h -0.43237 z"
         style="fill:#111416;fill-opacity:1;stroke-width:0.34543"
         id="path906" /><path
         d="m 140.28725,-460.73158 v -2.17433 h -1.58398 v -0.34091 h 1.99556 v 2.7148 q -0.44484,0.22034 -0.97699,0.32844 -0.53216,0.11225 -1.13914,0.12056 -1.34701,0 -2.10366,-0.85227 -0.76081,-0.84812 -0.76081,-2.36558 0,-1.52162 0.76081,-2.37389 0.75665,-0.84812 2.10366,-0.84812 0.5571,0 1.05183,0.11225 0.49889,0.12057 0.91464,0.35338 v 0.40327 q -0.41991,-0.23281 -0.89801,-0.35338 -0.47395,-0.11641 -0.99778,-0.11641 -1.25139,0 -1.87916,0.71093 -0.62777,0.70676 -0.62777,2.11197 0,1.426 0.62777,2.14524 0.62777,0.72339 1.87916,0.72339 0.51136,0 0.91463,-0.0707 0.39911,-0.0748 0.71924,-0.22866 z"
         style="fill:#111416;fill-opacity:1;stroke-width:0.34543"
         id="path908" /><path
         d="m 142.84991,-466.41063 h 0.6153 l 3.00998,5.6749 v -5.6749 h 0.41574 v 6.20705 h -0.59036 l -3.02661,-5.71231 v 5.71231 h -0.42405 z"
         style="fill:#111416;fill-opacity:1;stroke-width:0.34543"
         id="path910" /></g><g
       id="g22"
       style="fill:#5e7a91;fill-opacity:1"
       transform="matrix(0.23084992,0,0,0.23084992,-0.57958015,390.23763)"><g
         id="g24"
         clip-path="url(#clipPath28)"
         transform="translate(-40.950896,46.939397)"
         style="fill:#5e7a91;fill-opacity:1"><g
           id="g30"
           transform="translate(297.2799,306.1926)"
           style="fill:#5e7a91;fill-opacity:1"><path
             d="m 0,0 c -4.841,-0.765 -8.769,-4.147 -10.249,-8.827 -0.347,-1.098 -0.764,-2.225 -1.242,-3.352 -5.301,1.101 -18.562,3.435 -35.838,3.435 -17.467,0 -30.701,-2.386 -35.821,-3.472 -0.486,1.139 -0.908,2.279 -1.259,3.389 -1.48,4.68 -5.407,8.062 -10.248,8.827 l -3.675,0.58 c 1.622,6.352 4.305,14.925 8.716,25.186 2.047,4.761 6.443,8.103 11.581,8.779 6.889,0.908 17.69,1.961 30.705,1.961 h 10e-4 v 0 c 13.016,0 23.816,-1.053 30.706,-1.961 5.138,-0.676 9.534,-4.018 11.581,-8.779 C -0.631,15.505 2.052,6.932 3.673,0.58 Z m 1.531,91.506 c -35.053,18.924 -72.982,6.935 -75.375,6.14 -63.476,-21.109 -96.078,-86.095 -57.278,-127.481 7.683,-8.196 18.396,-14.457 30.818,-18.68 -3.563,4.566 -13.996,19.546 -17.017,41.869 -0.391,2.89 1.902,5.372 4.709,5.372 0.247,0 0.5,-0.019 0.754,-0.06 l 12.595,-1.988 3.982,-0.629 c 3.319,-0.524 6.045,-2.879 7.058,-6.083 2.295,-7.254 8.415,-19.585 23.502,-19.585 h 34.784 c 15.087,0 21.208,12.331 23.502,19.585 1.013,3.204 3.74,5.559 7.059,6.083 l 3.98,0.628 12.597,1.989 c 0.254,0.041 0.506,0.06 0.754,0.06 2.806,0 5.1,-2.482 4.709,-5.372 -1.556,-11.487 -4.849,-20.663 -8.125,-27.431 10.124,6.829 19.65,14.915 25.339,25.728 11.893,22.605 6.373,75.714 -38.347,99.855"
             style="fill:#5e7a91;fill-opacity:1;fill-rule:nonzero;stroke:none"
             id="path32" /></g><g
           id="g34"
           transform="translate(196.963,218.9489)"
           style="fill:#5e7a91;fill-opacity:1"><path
             d="m 0,0 h 7.387 l 22.135,32.786 c -6.56,0.539 -12.956,1.537 -19.067,2.969 z"
             style="fill:#5e7a91;fill-opacity:1;fill-rule:nonzero;stroke:none"
             id="path36" /></g><g
           id="g38"
           transform="translate(295.5524,218.9489)"
           style="fill:#5e7a91;fill-opacity:1"><path
             d="M 0,0 H 7.387 L -4.914,42.07 c -6.26,-2.497 -12.772,-4.51 -19.412,-6.04 z"
             style="fill:#5e7a91;fill-opacity:1;fill-rule:nonzero;stroke:none"
             id="path40" /></g></g></g><g
       aria-label="OUCH"
       transform="matrix(1.0490445,0,0,-1.0490445,-1.6189046,-24.293301)"
       id="text16-7"
       style="font-variant:normal;font-weight:900;font-stretch:normal;font-size:26.7959px;font-family:'Mont Heavy DEMO';-inkscape-font-specification:Mont-HeavyDEMO;word-spacing:0px;writing-mode:lr-tb;fill:#111416;fill-opacity:1;fill-rule:nonzero;stroke:none;stroke-width:0.330929"><path
         d="m 89.25552,-487.07694 c -0.0536,-0.56271 -0.42873,-0.83067 -1.23261,-0.83067 -0.0536,0 -2.78677,0 -2.84037,0 -0.83067,0 -1.20581,0.26796 -1.23261,0.83067 -0.0536,0.48233 0.16078,0.80388 0.85747,1.76853 0.48233,0.69669 0.53592,1.58096 0.53592,3.42988 v 4.66248 c 0,4.07298 -1.52737,5.8683 -4.233753,5.8683 -2.867162,0 -4.367732,-1.79532 -4.367732,-5.8683 v -4.66248 c 0,-1.84892 0.0268,-2.73319 0.509122,-3.42988 0.696693,-0.96465 0.911061,-1.2862 0.884265,-1.76853 -0.05359,-0.56271 -0.428735,-0.83067 -1.259408,-0.83067 -0.05359,0 -5.278792,0 -5.332384,0 -0.830673,0 -1.205815,0.26796 -1.259407,0.83067 -0.0268,0.48233 0.187571,0.80388 0.884265,1.76853 0.482326,0.69669 0.509122,1.58096 0.509122,3.42988 v 4.66248 c 0,5.65394 3.188712,8.30673 8.62828,8.30673 4.87685,0 7.55644,-2.75998 7.55644,-8.30673 v -4.66248 c 0,-1.84892 0.0536,-2.73319 0.53592,-3.42988 0.6967,-0.96465 0.88427,-1.2862 0.85747,-1.76853 z"
         style="font-style:normal;font-variant:normal;font-weight:normal;font-stretch:normal;font-family:'MADE Dillan';-inkscape-font-specification:'MADE Dillan';fill:#111416;fill-opacity:1;stroke-width:0.330929"
         id="path875" /><path
         d="m 108.49493,-475.17956 c -1.50057,-1.07184 -1.87571,3.18871 -6.56499,2.94755 -3.83182,-0.18757 -5.49316,-3.08153 -5.81471,-6.67218 -0.32155,-3.939 1.76853,-7.15451 5.54675,-6.77936 3.83181,0.37514 4.20696,4.34093 5.57355,4.39452 0.69669,0.0268 0.99145,-0.45553 0.85747,-1.2862 -0.21437,-1.15222 -0.75029,-4.01938 -0.96466,-5.1984 -0.18757,-1.12543 -0.45553,-1.71494 -1.36659,-1.55417 -1.17902,0.24117 -0.26796,1.9829 -3.939,1.3666 -6.83295,-1.12543 -12.56727,3.69783 -11.28107,10.98631 0.75029,4.20696 4.39453,8.06557 10.50399,8.06557 4.98404,0 6.83296,-3.34949 7.36888,-4.76967 0.26796,-0.69669 0.45553,-1.23261 0.0804,-1.50057 z"
         style="font-style:normal;font-variant:normal;font-weight:normal;font-stretch:normal;font-family:'MADE Dillan';-inkscape-font-specification:'MADE Dillan';fill:#111416;fill-opacity:1;stroke-width:0.330929"
         id="path877" /><path
         d="m 128.13629,-475.17956 v -6.69897 c 0,-1.84892 0.0268,-2.73319 0.50912,-3.42988 0.69669,-0.96465 0.91106,-1.2862 0.88426,-1.76853 -0.0536,-0.56271 -0.42873,-0.83067 -1.2594,-0.83067 -0.0536,0 -5.27879,0 -5.33239,0 -0.83067,0 -1.20581,0.26796 -1.2594,0.83067 -0.0268,0.48233 0.18757,0.80388 0.88426,1.76853 0.48233,0.69669 0.50912,1.58096 0.50912,3.42988 v 1.9025 h -6.5382 v -1.9025 c 0,-1.84892 0.0268,-2.73319 0.50913,-3.42988 0.69669,-0.96465 0.91106,-1.2862 0.88426,-1.76853 -0.0536,-0.56271 -0.42873,-0.83067 -1.25941,-0.83067 -0.0536,0 -5.27879,0 -5.33238,0 -0.83067,0 -1.20582,0.26796 -1.25941,0.83067 -0.0268,0.48233 0.18757,0.80388 0.88427,1.76853 0.48232,0.69669 0.50912,1.58096 0.50912,3.42988 v 6.69897 c 0,1.87571 -0.0268,2.75998 -0.50912,3.42988 -0.6967,0.96465 -0.91106,1.31299 -0.88427,1.79532 0.0536,0.56271 0.42874,0.80388 1.25941,0.80388 0.0536,0 5.27879,0 5.33238,0 0.83068,0 1.20582,-0.24117 1.25941,-0.80388 0.0268,-0.48233 -0.18757,-0.83067 -0.88426,-1.79532 -0.48233,-0.6699 -0.50913,-1.55417 -0.50913,-3.42988 v -2.27765 h 6.5382 v 2.27765 c 0,1.87571 -0.0268,2.75998 -0.50912,3.42988 -0.69669,0.96465 -0.91106,1.31299 -0.88426,1.79532 0.0536,0.56271 0.42873,0.80388 1.2594,0.80388 0.0536,0 5.2788,0 5.33239,0 0.83067,0 1.20581,-0.24117 1.2594,-0.80388 0.0268,-0.48233 -0.18757,-0.83067 -0.88426,-1.79532 -0.48233,-0.6699 -0.50912,-1.55417 -0.50912,-3.42988 z"
         style="font-style:normal;font-variant:normal;font-weight:normal;font-stretch:normal;font-family:'MADE Dillan';-inkscape-font-specification:'MADE Dillan';fill:#111416;fill-opacity:1;stroke-width:0.330929"
         id="path879" /></g></g></svg>
