<svg xmlns="http://www.w3.org/2000/svg" width="140" height="45"><defs><clipPath clipPathUnits="userSpaceOnUse" id="a"><path d="M0 500h500V0H0z"/></clipPath></defs><g style="-inkscape-font-specification:Mont-HeavyDEMO"><path d="M21.75 21.712c-1.59-1.136-1.986 3.377-6.953 3.122-4.059-.2-5.819-3.264-6.16-7.067-.34-4.173 1.874-7.578 5.876-7.18 4.059.396 4.456 4.597 5.904 4.654.737.028 1.05-.483.908-1.363-.228-1.22-.796-4.257-1.023-5.505-.198-1.193-.481-1.817-1.446-1.647-1.25.256-.285 2.1-4.172 1.448C7.446 6.982 1.372 12.09 2.734 19.81c.795 4.455 4.655 8.542 11.126 8.542 5.28 0 7.237-3.547 7.805-5.051.284-.739.483-1.306.085-1.59z" style="-inkscape-font-specification:'MADE Dillan'" font-weight="400" font-family="'MADE Dillan'" aria-label="C" font-size="26.796" word-spacing="0" fill="#111416"/></g><path d="M78.485 30.966h2.39v.262h-2.071v1.81h1.869v.254h-1.869v2.387h-.318zm3.238 0h.316v2.863q0 .897.316 1.291.312.392 1.013.392.697 0 1.01-.392.316-.393.316-1.29v-2.864h.316v2.942q0 .922-.417 1.393-.414.47-1.225.47-.815 0-1.228-.47-.417-.47-.417-1.393zm6.67 2.504q.195.07.378.297.13.164.37.624l.66 1.288h-.338l-.673-1.295q-.262-.507-.502-.671-.246-.165-.666-.165h-.856v2.131h-.315v-4.713h1.279q.723 0 1.08.338.355.338.355 1.02 0 .438-.185.738-.177.294-.588.408zm-1.627-2.245v2.061h1.042q.505 0 .764-.262.26-.262.26-.773 0-.509-.26-.768-.259-.258-.764-.258zm3.765-.259H91l2.285 4.309v-4.309h.316v4.713h-.449l-2.298-4.337v4.337h-.322zm4.817 0h.328v4.713h-.328zm.963 0h3.665v.26h-1.674v4.453h-.318v-4.454h-1.673zm4.027 0h.315v2.863q0 .897.316 1.291.313.392 1.013.392.699 0 1.01-.392.316-.393.316-1.29v-2.864h.316v2.942q0 .922-.416 1.393-.414.47-1.226.47-.814 0-1.228-.47-.416-.47-.416-1.393zm6.67 2.504q.195.07.378.297.13.164.37.624l.66 1.288h-.339l-.672-1.295q-.262-.507-.502-.671-.246-.165-.666-.165h-.856v2.131h-.315v-4.713h1.278q.723 0 1.08.338.357.338.357 1.02 0 .438-.187.738-.176.294-.586.408zm-1.626-2.245v2.061h1.042q.505 0 .763-.262.259-.262.259-.773 0-.509-.259-.768-.258-.258-.763-.258zm3.767-.259h2.665v.262h-2.343v1.81h2.245v.254h-2.245v2.132h2.4v.255h-2.722zm5.644.268v4.19h.934q1.067 0 1.562-.506.5-.505.5-1.594 0-1.083-.5-1.588-.495-.502-1.562-.502zm-.323-.268h1.159q1.288 0 1.891.571.603.568.603 1.781 0 1.219-.606 1.79t-1.888.571h-1.159zm4.681 0h2.665v.262h-2.343v1.81h2.245v.254h-2.245v2.132h2.4v.255h-2.722zm6.14.236v.297q-.308-.154-.684-.274-.246-.08-.622-.085-.555-.01-.903.246-.315.234-.315.802 0 .35.24.555.256.219.77.351l.375.098q.505.132.78.316.515.35.515.88 0 .767-.452 1.064-.492.319-1.01.319-.54 0-.966-.148-.268-.108-.562-.297v-.31q.442.263.62.335.393.161.731.161.578 0 .96-.255.36-.24.36-.844 0-.353-.22-.555-.32-.294-.828-.416l-.38-.093q-.453-.11-.772-.309-.483-.303-.483-.827 0-.654.393-1.004.368-.325 1.112-.328.44 0 .673.075.6.197.669.246zm1.131-.236h.33v4.713h-.33zm4.83 4.313v-1.651h-1.202v-.26h1.515v2.062q-.338.167-.742.25-.404.085-.865.09-1.022 0-1.598-.647-.578-.643-.578-1.796 0-1.155.578-1.802.576-.644 1.598-.644.423 0 .799.085.379.091.694.268v.306q-.318-.176-.681-.268-.36-.088-.758-.088-.95 0-1.428.54-.477.536-.477 1.603 0 1.083.477 1.63.477.549 1.428.549.388 0 .694-.053.303-.058.546-.174zm1.946-4.313h.468l2.286 4.309v-4.309h.315v4.713h-.448l-2.298-4.336v4.337h-.323z" aria-label="FURNITURE DESIGN" font-weight="300" font-size="8.514" font-family="'Mont ExtraLight DEMO'" fill="#111416" stroke-width=".345"/><g clip-path="url(#a)" transform="matrix(.23308 0 0 -.23308 -8.52 95.536)" fill="#5e7a91"><path d="M297.28 306.193a12.788 12.788 0 01-10.25-8.827 37.786 37.786 0 00-1.241-3.352c-5.301 1.1-18.562 3.435-35.838 3.435-17.467 0-30.701-2.386-35.821-3.472a37.426 37.426 0 00-1.26 3.389c-1.48 4.68-5.406 8.062-10.247 8.827l-3.675.58c1.622 6.352 4.305 14.925 8.716 25.186a14.703 14.703 0 0011.58 8.779c6.89.908 17.69 1.96 30.706 1.96 13.017 0 23.817-1.052 30.707-1.96a14.703 14.703 0 0011.58-8.78c4.412-10.26 7.095-18.833 8.716-25.185zm1.53 91.506c-35.052 18.924-72.981 6.935-75.374 6.14-63.476-21.11-96.078-86.095-57.278-127.481 7.683-8.196 18.396-14.457 30.818-18.68-3.563 4.566-13.996 19.546-17.017 41.869-.391 2.89 1.902 5.372 4.709 5.372.247 0 .5-.02.754-.06l12.595-1.988 3.982-.63a8.848 8.848 0 007.058-6.082c2.295-7.254 8.415-19.585 23.502-19.585h34.784c15.087 0 21.208 12.33 23.502 19.585a8.85 8.85 0 007.059 6.083l3.98.628 12.597 1.989c.254.04.506.06.754.06 2.806 0 5.1-2.482 4.709-5.372-1.556-11.487-4.85-20.663-8.125-27.431 10.124 6.829 19.65 14.915 25.339 25.728 11.893 22.605 6.373 75.714-38.347 99.855m-101.848-178.75h7.387l22.135 32.786c-6.56.539-12.956 1.537-19.067 2.969zm98.589 0h7.387l-12.3 42.07c-6.26-2.497-12.773-4.51-19.413-6.04z"/></g><g style="-inkscape-font-specification:Mont-HeavyDEMO"><path d="M94.511 9.11c-.056-.596-.454-.88-1.305-.88h-3.009c-.879 0-1.276.284-1.305.88-.057.511.17.852.909 1.873.51.739.568 1.675.568 3.634v4.938c0 4.314-1.619 6.215-4.485 6.215-3.036 0-4.627-1.9-4.627-6.215v-4.938c0-1.959.03-2.895.54-3.634.738-1.021.965-1.362.936-1.872-.057-.597-.454-.88-1.333-.88h-5.65c-.88 0-1.276.283-1.333.88-.029.51.199.85.936 1.872.511.739.54 1.675.54 3.634v4.938c0 5.989 3.377 8.799 9.139 8.799 5.165 0 8.004-2.924 8.004-8.8v-4.937c0-1.959.056-2.895.568-3.634.737-1.021.935-1.362.907-1.872zm20.379 12.602c-1.59-1.136-1.987 3.377-6.953 3.122-4.06-.2-5.819-3.264-6.16-7.067-.34-4.173 1.874-7.578 5.876-7.18 4.059.396 4.455 4.597 5.903 4.654.738.028 1.05-.483.908-1.363-.227-1.22-.795-4.257-1.022-5.505-.199-1.193-.483-1.817-1.447-1.647-1.249.256-.284 2.1-4.172 1.448-7.238-1.192-13.312 3.916-11.95 11.637.796 4.455 4.656 8.542 11.127 8.542 5.279 0 7.237-3.548 7.805-5.052.284-.738.482-1.305.085-1.59zm20.803 0v-7.095c0-1.959.03-2.895.54-3.634.738-1.021.964-1.362.936-1.872-.057-.597-.454-.88-1.334-.88h-5.648c-.88 0-1.277.283-1.334.88-.028.51.2.85.937 1.872.511.739.54 1.675.54 3.634v2.014h-6.926v-2.014c0-1.959.029-2.895.54-3.634.738-1.021.965-1.362.936-1.872-.057-.597-.454-.88-1.334-.88h-5.648c-.88 0-1.277.283-1.334.88-.028.51.2.85.937 1.872.51.739.539 1.675.539 3.634v7.095c0 1.986-.028 2.923-.54 3.632-.737 1.023-.964 1.392-.936 1.902.057.596.454.852 1.334.852h5.648c.88 0 1.277-.256 1.334-.852.029-.51-.198-.88-.937-1.9-.51-.711-.539-1.648-.539-3.634v-2.413h6.925v2.413c0 1.986-.028 2.923-.54 3.632-.737 1.023-.964 1.392-.936 1.902.057.596.455.852 1.334.852h5.648c.88 0 1.277-.256 1.334-.852.028-.51-.198-.88-.936-1.9-.512-.711-.54-1.648-.54-3.634z" style="-inkscape-font-specification:'MADE Dillan'" aria-label="OUCH" font-weight="400" font-size="26.796" font-family="'MADE Dillan'" word-spacing="0" fill="#111416" stroke-width=".331"/></g></svg>