<?xml version="1.0" encoding="UTF-8" standalone="no"?>
<svg
   xmlns:dc="http://purl.org/dc/elements/1.1/"
   xmlns:cc="http://creativecommons.org/ns#"
   xmlns:rdf="http://www.w3.org/1999/02/22-rdf-syntax-ns#"
   xmlns:svg="http://www.w3.org/2000/svg"
   xmlns="http://www.w3.org/2000/svg"
   xmlns:sodipodi="http://sodipodi.sourceforge.net/DTD/sodipodi-0.dtd"
   xmlns:inkscape="http://www.inkscape.org/namespaces/inkscape"
   version="1.1"
   id="svg2"
   xml:space="preserve"
   width="180"
   height="60"
   viewBox="0 0 180 60"
   sodipodi:docname="3540721.ai.svg"
   inkscape:version="1.0.1 (3bc2e813f5, 2020-09-07)"><metadata
     id="metadata8"><rdf:RDF><cc:Work
         rdf:about=""><dc:format>image/svg+xml</dc:format><dc:type
           rdf:resource="http://purl.org/dc/dcmitype/StillImage" /><dc:title></dc:title></cc:Work></rdf:RDF></metadata><defs
     id="defs6"><clipPath
       clipPathUnits="userSpaceOnUse"
       id="clipPath28"><path
         d="M 0,500 H 500 V 0 H 0 Z"
         id="path26" /></clipPath></defs><sodipodi:namedview
     pagecolor="#ffffff"
     bordercolor="#666666"
     borderopacity="1"
     objecttolerance="10"
     gridtolerance="10"
     guidetolerance="10"
     inkscape:pageopacity="0"
     inkscape:pageshadow="2"
     inkscape:window-width="1280"
     inkscape:window-height="1000"
     id="namedview4"
     showgrid="false"
     inkscape:zoom="0.81899998"
     inkscape:cx="-50.531999"
     inkscape:cy="-14.350855"
     inkscape:window-x="0"
     inkscape:window-y="0"
     inkscape:window-maximized="1"
     inkscape:current-layer="g10" /><g
     id="g10"
     inkscape:groupmode="layer"
     inkscape:label="3540721"
     transform="matrix(1.3333333,0,0,-1.3333333,0,666.66667)"><text
       transform="scale(1,-1)"
       style="font-variant:normal;font-weight:900;font-stretch:normal;font-size:25.5938px;font-family:'Mont Heavy DEMO';-inkscape-font-specification:Mont-HeavyDEMO;word-spacing:0px;writing-mode:lr-tb;fill:#000000;fill-opacity:1;fill-rule:nonzero;stroke:none;stroke-width:0.316083"
       id="text16"
       x="5.7752972"
       y="-468.90823"><tspan
         sodipodi:role="line"
         id="tspan14"
         style="stroke-width:0.316083"
         x="5.7752972"
         y="-468.90823">C     UCH</tspan></text><text
       transform="scale(1,-1)"
       style="font-variant:normal;font-weight:300;font-stretch:normal;font-size:6.14069px;font-family:'Mont ExtraLight DEMO';-inkscape-font-specification:Mont-ExtraLightDEMO;writing-mode:lr-tb;fill:#000000;fill-opacity:1;fill-rule:nonzero;stroke:none;stroke-width:0.249128"
       id="text20"
       x="71.719574"
       y="-462.159"><tspan
         x="71.719574 74.857468 79.278763 83.165817 87.740669 89.263542 92.536545 96.957848 100.8449 104.17317 105.8987 110.34455 113.67281 117.25285 118.77574 123.68829"
         y="-462.159"
         sodipodi:role="line"
         id="tspan18"
         style="stroke-width:0.249128">FURNITURE DESIGN</tspan></text><g
       id="g22"
       style="fill:#000000"
       transform="matrix(0.21018496,0,0,0.21018496,4.2464632,401.4769)"><g
         id="g24"
         clip-path="url(#clipPath28)"
         transform="translate(-40.950896,46.939397)"
         style="fill:#000000"><g
           id="g30"
           transform="translate(297.2799,306.1926)"
           style="fill:#000000"><path
             d="m 0,0 c -4.841,-0.765 -8.769,-4.147 -10.249,-8.827 -0.347,-1.098 -0.764,-2.225 -1.242,-3.352 -5.301,1.101 -18.562,3.435 -35.838,3.435 -17.467,0 -30.701,-2.386 -35.821,-3.472 -0.486,1.139 -0.908,2.279 -1.259,3.389 -1.48,4.68 -5.407,8.062 -10.248,8.827 l -3.675,0.58 c 1.622,6.352 4.305,14.925 8.716,25.186 2.047,4.761 6.443,8.103 11.581,8.779 6.889,0.908 17.69,1.961 30.705,1.961 h 10e-4 v 0 c 13.016,0 23.816,-1.053 30.706,-1.961 5.138,-0.676 9.534,-4.018 11.581,-8.779 C -0.631,15.505 2.052,6.932 3.673,0.58 Z m 1.531,91.506 c -35.053,18.924 -72.982,6.935 -75.375,6.14 -63.476,-21.109 -96.078,-86.095 -57.278,-127.481 7.683,-8.196 18.396,-14.457 30.818,-18.68 -3.563,4.566 -13.996,19.546 -17.017,41.869 -0.391,2.89 1.902,5.372 4.709,5.372 0.247,0 0.5,-0.019 0.754,-0.06 l 12.595,-1.988 3.982,-0.629 c 3.319,-0.524 6.045,-2.879 7.058,-6.083 2.295,-7.254 8.415,-19.585 23.502,-19.585 h 34.784 c 15.087,0 21.208,12.331 23.502,19.585 1.013,3.204 3.74,5.559 7.059,6.083 l 3.98,0.628 12.597,1.989 c 0.254,0.041 0.506,0.06 0.754,0.06 2.806,0 5.1,-2.482 4.709,-5.372 -1.556,-11.487 -4.849,-20.663 -8.125,-27.431 10.124,6.829 19.65,14.915 25.339,25.728 11.893,22.605 6.373,75.714 -38.347,99.855"
             style="fill:#000000;fill-opacity:1;fill-rule:nonzero;stroke:none"
             id="path32" /></g><g
           id="g34"
           transform="translate(196.963,218.9489)"
           style="fill:#000000"><path
             d="m 0,0 h 7.387 l 22.135,32.786 c -6.56,0.539 -12.956,1.537 -19.067,2.969 z"
             style="fill:#000000;fill-opacity:1;fill-rule:nonzero;stroke:none"
             id="path36" /></g><g
           id="g38"
           transform="translate(295.5524,218.9489)"
           style="fill:#000000"><path
             d="M 0,0 H 7.387 L -4.914,42.07 c -6.26,-2.497 -12.772,-4.51 -19.412,-6.04 z"
             style="fill:#000000;fill-opacity:1;fill-rule:nonzero;stroke:none"
             id="path40" /></g></g></g></g></svg>
